<svg width="84" height="84" viewBox="0 0 84 84" fill="none" xmlns="http://www.w3.org/2000/svg">
<path d="M0 1.16178C0.504909 0.253135 1.29593 -0.0160932 2.32258 0.000733604C5.20056 0.0512139 8.06171 0.01756 10.9397 0.01756C12.4376 0.01756 13.0098 0.58967 13.0266 2.10408C13.0435 2.9959 13.0266 3.90455 13.0266 4.84685C20.5161 4.84685 27.9383 4.84685 35.4614 4.84685C35.4614 3.92137 35.4614 3.02955 35.4614 2.13773C35.4783 0.606497 36.0842 0.01756 37.6157 0.01756C40.5442 0.01756 43.4726 0.01756 46.3843 0.01756C47.9158 0.01756 48.5049 0.623325 48.5217 2.15456C48.5217 2.97907 48.5217 3.78676 48.5386 4.61127C48.5386 4.66175 48.5554 4.71223 48.5891 4.83002C55.9944 4.83002 63.3997 4.83002 70.9565 4.83002C70.9565 3.95503 70.9565 3.06321 70.9565 2.17139C70.9734 0.572843 71.5288 0.01756 73.1445 0.01756C76.0393 0.01756 78.9341 0.01756 81.8457 0.01756C83.3941 0.01756 83.9832 0.572844 83.9832 2.12091C83.9832 5.06559 83.9832 8.02711 83.9832 10.9718C83.9832 12.4189 83.3941 13.0415 81.9635 13.0415C78.9846 13.0583 76.0056 13.0583 73.0266 13.0415C71.5288 13.0415 70.9734 12.4525 70.9565 10.9213C70.9397 10.0295 70.9565 9.13767 70.9565 8.19537C66.4797 8.19537 62.1206 8.19537 57.6101 8.19537C70.7546 14.9766 77.8738 25.6616 79.1529 40.3345C80.0954 40.3345 81.0379 40.3345 81.9972 40.3345C83.3773 40.3513 83.9832 40.9571 84 42.3537C84 45.3657 84 48.3609 84 51.3729C84 52.719 83.4109 53.3584 82.0645 53.3753C79.0014 53.4089 75.9383 53.4089 72.8752 53.3753C71.5792 53.3584 70.9734 52.7527 70.9734 51.4402C70.9565 48.3777 70.9565 45.3152 70.9734 42.2528C70.9902 40.9235 71.6129 40.3513 72.9762 40.3345C73.9018 40.3345 74.8275 40.3345 75.7363 40.3345C75.1304 24.5173 62.7602 11.2915 48.5217 8.85162C48.5217 9.57517 48.5386 10.2819 48.5217 10.9886C48.5049 12.3852 47.9158 13.0247 46.5358 13.0247C43.5063 13.0415 40.46 13.0415 37.4306 13.0247C36.0673 13.0078 35.4783 12.3684 35.4614 10.9718C35.4446 10.2651 35.4614 9.55834 35.4614 8.85162C20.9369 11.3756 8.80224 24.8034 8.26367 40.3345C9.15568 40.3345 10.0477 40.3345 10.9565 40.3345C12.4208 40.3345 13.0266 40.9066 13.0435 42.3369C13.0603 45.3489 13.0603 48.3441 13.0435 51.3561C13.0435 52.7527 12.4544 53.3584 11.0407 53.3753C8.02805 53.3921 5.03226 53.3753 2.01964 53.3921C1.06031 53.3921 0.420758 52.9883 0.0168307 52.1469C0.0168307 48.5965 0.0168307 45.046 0.0168307 41.4787C0.52174 40.5701 1.31276 40.2504 2.33941 40.3177C3.18093 40.3682 4.02244 40.3345 4.84712 40.3345C6.12623 25.6784 13.2286 14.9934 26.3731 8.2122C21.8794 8.2122 17.5203 8.2122 13.0603 8.2122C13.0603 9.13767 13.0603 9.99584 13.0603 10.8708C13.0435 12.4862 12.5049 13.0415 10.8892 13.0415C7.99439 13.0583 5.09958 13.0247 2.20477 13.0583C1.21178 13.0583 0.454418 12.7554 0.0336606 11.8131C-3.13489e-08 8.26268 0 4.71223 0 1.16178ZM45.2062 3.34926C43.0182 3.34926 40.8976 3.34926 38.777 3.34926C38.777 5.50309 38.777 7.58961 38.777 9.72661C40.9313 9.72661 43.0519 9.72661 45.2062 9.72661C45.2062 7.57278 45.2062 5.48626 45.2062 3.34926ZM3.31557 9.72661C5.46985 9.72661 7.5568 9.72661 9.67742 9.72661C9.67742 7.57278 9.67742 5.45261 9.67742 3.33244C7.52314 3.33244 5.43618 3.33244 3.31557 3.33244C3.31557 5.46944 3.31557 7.55596 3.31557 9.72661ZM80.6676 3.33244C78.4797 3.33244 76.3927 3.33244 74.3057 3.33244C74.3057 5.48626 74.3057 7.58961 74.3057 9.72661C76.46 9.72661 78.5638 9.72661 80.6676 9.72661C80.6676 7.57278 80.6676 5.48626 80.6676 3.33244ZM3.31557 50.0604C5.48668 50.0604 7.57363 50.0604 9.67742 50.0604C9.67742 47.9066 9.67742 45.7864 9.67742 43.6662C7.52314 43.6662 5.43618 43.6662 3.31557 43.6662C3.31557 45.82 3.31557 47.9066 3.31557 50.0604ZM74.2721 43.6662C74.2721 45.8369 74.2721 47.9234 74.2721 50.0604C76.4264 50.0604 78.547 50.0604 80.6339 50.0604C80.6339 47.8897 80.6339 45.7696 80.6339 43.6662C78.4965 43.6662 76.4264 43.6662 74.2721 43.6662Z" fill="#B1E734"/>
<path d="M30.3454 83.9834C29.4365 83.4786 29.1672 82.6877 29.1841 81.6613C29.2177 77.5555 29.2009 73.4666 29.2009 69.3609C29.2009 68.9234 29.0999 68.6373 28.696 68.3681C26.9288 67.1902 26.1378 65.1037 26.6595 63.1518C27.1981 61.0653 28.8811 59.6182 31.0354 59.4331C31.6245 59.3826 32.2304 59.4331 32.9204 59.4331C32.5501 57.498 31.8938 55.748 31.0691 54.0654C29.8741 51.6423 28.2921 49.5053 26.3566 47.6207C25.229 46.527 25.1785 46.039 25.9358 44.676C26.6427 43.3804 27.3496 42.0847 28.0733 40.8059C28.4435 40.1664 29.0326 39.6953 29.7563 39.9477C30.2612 40.116 30.8166 40.5703 31.0354 41.0414C31.2205 41.4453 31.0186 42.1015 30.8166 42.5727C30.3959 43.4981 29.8405 44.3395 29.4029 45.2481C29.3019 45.4669 29.3187 45.9212 29.4702 46.0726C32.9709 49.825 35.2261 54.2 36.2696 59.2144C36.2865 59.2648 36.3201 59.3153 36.3538 59.3826C40.1069 59.3826 43.8769 59.3826 47.6806 59.3826C47.8825 58.5918 48.0508 57.8009 48.2696 57.0269C49.4646 52.9548 51.501 49.337 54.4127 46.2409C54.7156 45.9212 54.8839 45.6688 54.6146 45.1808C51.0466 38.753 47.5123 32.3252 43.9779 25.8973C43.9274 25.7964 43.8433 25.6954 43.6413 25.4094C43.6413 26.5199 43.6413 27.4117 43.6413 28.3036C43.6413 31.0968 43.6581 33.8732 43.6245 36.6665C43.6245 37.1544 43.7255 37.4237 44.2304 37.6424C46.6876 38.7025 47.9835 41.3107 47.4281 43.902C46.8727 46.4428 44.6006 48.2769 42.0088 48.2769C39.4169 48.2769 37.128 46.4428 36.5726 43.902C36.0003 41.3275 37.3131 38.7193 39.7535 37.6256C40.1238 37.4573 40.3931 37.3564 40.3762 36.8347C40.3426 33.1665 40.3594 29.5151 40.3594 25.8468C40.3594 25.7795 40.3257 25.6954 40.2921 25.4935C40.1238 25.7795 39.9891 25.9646 39.8713 26.1666C38.8447 28.0343 37.818 29.9021 36.7745 31.753C36.1686 32.83 35.2766 33.1665 34.4015 32.6785C33.5263 32.1905 33.3243 31.2482 33.9134 30.1882C36.0845 26.2339 38.2388 22.2964 40.4267 18.3589C41.2346 16.895 42.7325 16.895 43.5571 18.3589C48.4548 27.2266 53.3355 36.0944 58.2163 44.9621C58.8054 46.039 58.6876 46.5943 57.6946 47.5534C54.5137 50.6327 52.3594 54.3009 51.2486 58.5749C51.1813 58.8105 51.1476 59.0461 51.0635 59.3994C51.602 59.3994 52.0733 59.3826 52.5445 59.3994C54.8671 59.4668 56.6511 60.8297 57.2738 63.0004C57.8797 65.0532 57.0887 67.1061 55.2374 68.4522C54.9849 68.6373 54.7998 69.058 54.7998 69.3777C54.7661 73.4835 54.7661 77.5724 54.7998 81.6781C54.8166 82.7045 54.5473 83.4954 53.6385 84.0002C53.3187 84.0002 52.9821 84.0002 52.6623 84.0002C51.7535 83.4954 51.4842 82.7045 51.501 81.6781C51.5347 77.8248 51.5179 73.9714 51.5179 70.1181C51.5179 69.832 51.5179 69.546 51.5179 69.2768C45.1055 69.2768 38.8447 69.2768 32.4828 69.2768C32.4828 69.6133 32.4828 69.8994 32.4828 70.2022C32.4828 74.0219 32.466 77.8584 32.4996 81.6781C32.5165 82.7045 32.2472 83.4954 31.3384 84.0002C31.0017 83.9834 30.6651 83.9834 30.3454 83.9834ZM41.9078 65.9451C45.2738 65.9451 48.6231 65.9451 51.9891 65.9451C52.2921 65.9451 52.595 65.9451 52.8811 65.8778C53.6722 65.7095 54.1602 65.0869 54.1602 64.296C54.1602 63.5052 53.6722 62.8994 52.8811 62.7143C52.5614 62.647 52.2247 62.647 51.905 62.647C45.2907 62.647 38.6932 62.647 32.0789 62.647C31.675 62.647 31.2542 62.6638 30.8671 62.7816C30.1771 63.0004 29.8236 63.5388 29.8236 64.2792C29.8236 65.0196 30.1771 65.5412 30.8671 65.7768C31.2205 65.8946 31.6245 65.9114 31.9947 65.9114C35.2935 65.9451 38.609 65.9451 41.9078 65.9451ZM44.2808 42.6736C44.2808 41.4284 43.2374 40.3684 41.9919 40.3684C40.7465 40.3684 39.703 41.4116 39.703 42.6568C39.703 43.9188 40.7297 44.9452 41.9919 44.9452C43.2542 44.9452 44.2808 43.9188 44.2808 42.6736Z" fill="#B1E734"/>
<path d="M33.8621 36.3974C33.8789 37.2724 33.1552 38.0296 32.28 38.0464C31.4049 38.0633 30.6475 37.3397 30.6307 36.4647C30.6138 35.5897 31.3375 34.8157 32.1959 34.7989C33.0711 34.782 33.8452 35.5224 33.8621 36.3974Z" fill="#B1E734"/>
</svg>
