<svg width="84" height="80" viewBox="0 0 84 80" fill="none" xmlns="http://www.w3.org/2000/svg">
<path d="M40.9538 0.0377114C49.2577 0.0377114 57.5778 -0.0568287 65.8817 0.0534677C78.8939 0.242547 84.5373 8.51478 82.8443 20.994C82.7314 21.7976 81.377 23.0581 80.6675 23.0109C79.8452 22.9636 78.5875 21.8134 78.4263 20.9625C78.0554 19.119 78.2812 17.1809 78.2489 15.2744C78.1199 9.8856 75.0402 6.15128 69.6386 5.07983C67.9939 4.74894 66.2848 4.6544 64.6079 4.6544C48.903 4.62289 33.1819 4.62289 17.477 4.63865C8.254 4.6544 4.77118 8.05784 4.77118 17.0391C4.75506 25.5477 4.72281 34.0405 4.78731 42.5491C4.83568 49.6396 8.57648 53.2163 15.8807 53.3739C17.8317 53.4212 19.7989 53.3109 21.6854 53.6575C22.411 53.7993 23.3946 54.9811 23.4268 55.7216C23.4591 56.4149 22.3949 57.7227 21.7499 57.7542C15.655 58.1797 9.46331 58.7942 4.5132 54.0514C1.59473 51.2467 0.0468103 47.8748 0.0468103 43.8569C0.0306861 34.2138 -0.0499346 24.5708 0.0468103 14.9277C0.143555 6.05674 6.14174 0.179521 15.2358 0.0534677C23.8138 -0.0568287 32.3757 0.0377114 40.9538 0.0377114Z" fill="#B1E734"/>
<path d="M66.1253 55.9809C64.0367 57.2098 61.0645 58.9677 57.4174 61.1145C60.6789 63.0434 63.5386 64.7391 66.5912 66.5436C67.3142 66.0147 67.9729 65.4857 68.6637 65.0035C71.8287 62.8256 75.781 62.7634 78.7854 64.8635C81.7897 66.948 83.075 70.7593 81.9504 74.2283C80.89 77.5263 77.2912 80.0308 73.6924 79.9997C70.0293 79.953 66.6394 77.6507 65.6433 74.0417C63.8921 67.6947 57.2407 67.3836 52.9511 64.1946C52.5494 63.899 51.1035 64.7702 50.2359 65.268C46.6692 67.2903 43.2311 69.5459 39.5519 71.3504C38.4595 71.8794 36.7404 71.2104 35.2944 71.086C35.921 69.9037 36.2263 68.2859 37.2224 67.6169C40.5962 65.3457 44.1951 63.4168 48.0831 61.1456C44.1951 58.8588 40.6123 56.9143 37.2706 54.6586C36.2745 53.9897 35.9531 52.3874 35.3105 51.2052C36.7564 51.0807 38.4916 50.3962 39.6001 50.9251C43.1668 52.6519 46.5086 54.8297 49.9306 56.8365C50.7018 57.2876 51.4569 57.9099 52.2924 58.0965C54.5095 58.6099 64.7597 51.2518 65.2095 48.9339C66.1413 44.1737 69.7562 41.2803 74.4154 41.5914C78.8175 41.887 82.111 45.1538 82.3038 49.4006C82.4966 53.8342 79.4762 57.7699 74.9295 57.9565C72.2786 58.0499 69.5956 56.8054 66.1253 55.9809ZM78.1427 50.8785C78.1749 50.2718 78.1909 49.6651 78.223 49.0584C76.761 48.0939 75.2669 46.3361 73.837 46.3983C72.4875 46.445 70.0454 48.5606 70.19 49.4784C70.3989 50.9563 72.1501 53.0252 73.596 53.3208C74.8652 53.5697 76.6004 51.7652 78.1427 50.8785ZM78.1427 72.6883C78.1588 72.0816 78.1909 71.4749 78.207 70.8682C76.745 69.9037 75.2508 68.1459 73.837 68.2081C72.4875 68.2548 70.0615 70.3704 70.19 71.2882C70.3989 72.7661 72.1661 74.835 73.596 75.1306C74.8652 75.3795 76.6004 73.575 78.1427 72.6883Z" fill="#B1E734"/>
<path d="M30.6623 29.0968C30.6623 25.9504 30.4849 22.8039 30.7106 19.6731C31.0492 15.2117 34.6281 13.5524 38.352 16.104C42.3501 18.8591 46.2675 21.7707 50.0882 24.7763C53.3608 27.3436 53.3769 30.3335 50.0882 32.9947C46.3159 36.0472 42.4145 38.9745 38.4649 41.8079C34.5958 44.563 31.0169 42.888 30.6945 38.1448C30.4849 35.1393 30.6461 32.118 30.6623 29.0968ZM35.6598 38.1292C39.9964 34.8418 43.801 31.9615 47.8957 28.8463C43.6881 25.7782 39.948 23.0387 35.6598 19.9079C35.6598 26.1852 35.6598 31.7267 35.6598 38.1292Z" fill="#B1E734"/>
</svg>
