<svg width="49" height="46" viewBox="0 0 49 46" fill="none" xmlns="http://www.w3.org/2000/svg">
<path d="M35.8802 32.0802L25.1102 35.0002L40.2702 45.6702L35.8802 32.0802ZM29.9902 17.5202H29.9402V17.4802L24.0502 0.230195V0.200195L19.0802 17.5302L19.0602 17.5802H19.0202L0.200195 17.6802L15.4602 28.4202L15.5002 28.4502L15.4802 28.4902L9.7902 45.8302L24.0502 35.5602L24.9302 34.9302L34.4002 28.3102L48.8102 17.4102L29.9902 17.5202Z" fill="#676767"/>
<path d="M35.94 32.06L35.92 32L25.09 34.94L24.97 34.98L40.23 45.72L40.39 45.82L35.94 32.06ZM35.84 32.15L40.15 45.51L25.25 35.03L35.84 32.15ZM29.99 17.46L24.1 0.18L24.04 0L23.98 0.2L19.02 17.52L0.2 17.62H0L15.42 28.47L9.73 45.81L9.67 46L24.05 35.64L24.97 34.98L34.44 28.36L48.85 17.46L49 17.35L29.99 17.46ZM24.05 35.48L9.91 45.67L15.54 28.51L15.57 28.42L0.39 17.75L19.02 17.64H19.11L24.05 0.41L29.9 17.58L48.63 17.48L34.36 28.26L24.9 34.87L24.05 35.48Z" fill="#00B67A"/>
<path d="M24.05 0.200195V35.6402L9.67 46.0002L9.73 45.8102L15.42 28.4702L0 17.6202H0.2L19.02 17.5202L23.98 0.200195H24.05Z" fill="#00B67A"/>
</svg>
