<svg width="26" height="24" viewBox="0 0 26 24" fill="none" xmlns="http://www.w3.org/2000/svg">
<path d="M2.18284 13.8024C0.727612 13.8024 0 14.5239 0 15.967V21.8354C0 23.2785 0.727612 24 2.18284 24H7.8097C9.26493 24 9.99254 23.2785 9.99254 21.8354V15.967C9.99254 12.5998 9.63682 9.66559 8.92537 7.16429C8.18159 4.63091 6.74254 2.41822 4.60821 0.526207C3.89677 -0.0830853 3.29851 -0.163255 2.81343 0.285697L0.630598 2.30598C0.145523 2.75493 0.258707 3.30009 0.97015 3.94145C2.06965 4.90349 2.97512 6.29845 3.68657 8.12633C4.36567 9.92214 4.70522 11.8142 4.70522 13.8024H2.18284ZM18.1903 13.8024C16.7351 13.8024 16.0075 14.5239 16.0075 15.967V21.8354C16.0075 23.2785 16.7351 24 18.1903 24H23.8172C25.2724 24 26 23.2785 26 21.8354V15.967C26 12.5998 25.6443 9.66559 24.9328 7.16429C24.1891 4.63091 22.75 2.41822 20.6157 0.526207C19.9042 -0.0830853 19.306 -0.163255 18.8209 0.285697L16.6381 2.30598C16.153 2.75493 16.2662 3.30009 16.9776 3.94145C18.0771 4.90349 18.9826 6.29845 19.694 8.12633C20.3731 9.92214 20.7127 11.8142 20.7127 13.8024H18.1903Z" fill="#3C3C3C"/>
</svg>
